<?xml version="1.0" encoding="utf-8"?>
<!-- Generator: Adobe Illustrator 23.0.2, SVG Export Plug-In . SVG Version: 6.00 Build 0)  -->
<svg version="1.1" id="Layer_1" xmlns="http://www.w3.org/2000/svg" xmlns:xlink="http://www.w3.org/1999/xlink" x="0px" y="0px"
	 viewBox="0 0 884.9 227.6" style="enable-background:new 0 0 884.9 227.6;" xml:space="preserve">
<style type="text/css">
	.st0{fill:#2B455F;}
</style>
<path class="st0" d="M97.9,161l-29.4,26H57.3V35.2h90.2c0,0,32.1,10.6,38.7,25.3L99,60.4l-0.3,86.3"/>
<rect x="124.5" y="86.3" class="st0" width="81.2" height="16"/>
<path class="st0" d="M124.5,127.7h81.2c0,0-18.3,54.4-63.4,59.2H96l28.5-24.8"/>
<path class="st0" d="M290.5,85.7h-29.9V153h30.1c28.4-4.3,28.4-32.9,28.4-32.9C318.5,91.9,290.5,85.7,290.5,85.7z M288.7,140.7H276
	V98.5h13.7c0,0,13.3,5.5,12.9,20.8C302.6,119.4,304.3,131.7,288.7,140.7z"/>
<rect x="328.1" y="107" class="st0" width="17" height="46"/>
<circle class="st0" cx="337" cy="89.6" r="8.9"/>
<circle class="st0" cx="427.5" cy="89.6" r="8.9"/>
<rect x="419" y="107" class="st0" width="17" height="46"/>
<rect x="545" y="77.3" class="st0" width="17" height="75.7"/>
<rect x="651" y="77.3" class="st0" width="17" height="75.7"/>
<rect x="449.2" y="93.9" class="st0" width="15.1" height="59.2"/>
<rect x="442.6" y="108" class="st0" width="30.5" height="10.5"/>
<rect x="602.6" y="86" class="st0" width="17" height="67.1"/>
<rect x="610" y="86" class="st0" width="30.5" height="12.4"/>
<rect x="606" y="115.1" class="st0" width="30.5" height="12.4"/>
<path class="st0" d="M704.6,106.3c-14.5,0-26.2,10.9-26.2,24.3s11.7,24.3,26.2,24.3s26.2-10.9,26.2-24.3S719.1,106.3,704.6,106.3z
	 M704.2,142.2c-6.9,0-12.5-5.3-12.5-11.8s5.6-11.8,12.5-11.8s12.5,5.3,12.5,11.8S711.1,142.2,704.2,142.2z"/>
<polygon class="st0" points="737.6,106.3 754.5,106.3 765.3,130.4 776.9,106.3 787.9,106.3 798.4,130.4 809.8,107.4 827.2,107.2 
	805.9,153 793.2,153 781.5,132.4 771.5,153 758.3,153 "/>
<rect x="518.4" y="106.9" class="st0" width="12.5" height="46.6"/>
<rect x="391.6" y="107" class="st0" width="14" height="46.6"/>
<path class="st0" d="M391.6,153.6c0,0-0.7,5.9-11.6,8.1c0,0-6.3,0.1-9.3-4h-14.8c0,0,3.2,12.8,14.3,15.8h19c0,0,11.6,0.4,16.5-19.8"
	/>
<g>
	<path class="st0" d="M382.8,141.5c-6.9,0-12.5-5.1-12.5-11.5c0-6.3,5.6-11.5,12.5-11.5c5.1,0,9.5,2.8,11.5,6.9
		c-0.5-3.1-1.1-5.3-1.1-5.3l-1.8-4.5c0,0-4.4-8.4-16.3-8.3s-21.4,11.7-21.4,22.1c0,9.1,0.5,20.1,20.8,23.9c0,0,10.8,0.8,17.5-5.3
		c3.3-3,3.6-9.8,3.1-16C394.1,137.4,389,141.5,382.8,141.5z"/>
	<path class="st0" d="M395.3,130c0-1.7-0.4-3.2-1.1-4.6c0.3,1.9,0.7,4.2,0.9,6.6C395.2,131.4,395.3,130.7,395.3,130z"/>
</g>
<path class="st0" d="M509.7,141.4c-6.9,0-12.5-5.1-12.5-11.5c0-6.3,5.6-11.5,12.5-11.5c5.1,0,9.5,2.8,11.5,6.9
	c-0.5-3.1-1.1-5.3-1.1-5.3l-1.8-4.5c0,0-4.4-8.4-16.3-8.3s-21.4,11.7-21.4,22.1c0,9.1,0.5,20.1,20.8,23.9c0,0,10.8,0.8,17.5-5.3
	c3.3-3,3.6-9.8,3.1-16C521,137.3,515.8,141.4,509.7,141.4z"/>
<g>
	<path class="st0" d="M847.9,69.6c0.2,0.1,0.4,0.1,0.6,0.1c2.2,0.2,4.2,0.8,6.1,1.8c3.5,1.8,6.1,4.5,7.7,8.1
		c0.7,1.5,1.1,3.1,1.3,4.7c0.2,1.4,0.2,2.7,0,4.1c-0.3,2.8-1.3,5.3-2.9,7.6c-2.6,3.6-6,5.9-10.3,6.8c-1.8,0.4-3.6,0.5-5.5,0.2
		c-3.9-0.5-7.2-2.2-10-5c-2.3-2.3-3.7-5.1-4.3-8.3c-0.3-1.5-0.4-3.1-0.2-4.7c0.3-3.5,1.6-6.7,3.9-9.4c2.4-2.8,5.4-4.6,9-5.5
		c0.9-0.2,1.8-0.3,2.7-0.4c0,0,0.1,0,0.1,0C846.7,69.6,847.3,69.6,847.9,69.6z M846.8,99.6c7.3,0.1,13.3-5.7,13.5-12.9
		c0.2-7.5-5.7-13.5-13-13.7c-7.4-0.2-13.5,5.7-13.6,13C833.6,93.4,839.4,99.5,846.8,99.6z"/>
	<path class="st0" d="M853.9,84.1c-0.7,0-1.4,0-2,0c-0.2,0-0.2-0.1-0.3-0.2c-1-1.8-2.6-2.7-4.7-2.7c-2.5,0.1-4.7,2.1-4.9,4.6
		c-0.3,2.7,1.6,5.2,4.3,5.6c2.2,0.3,4.4-0.8,5.4-2.8c0.1-0.1,0.1-0.2,0.3-0.2c1.3,0,2.7,0,4,0c0.2,0,0.2,0,0.2,0.2
		c-1.1,3.9-3.6,6.3-7.6,7c-4.5,0.8-8.9-1.9-10.4-6.3c-1.8-5.2,1.6-11,7-12.1c4.4-0.9,8.8,1.4,10.6,5.5c0.2,0.4,0.3,0.9,0.5,1.3
		c0,0.2,0,0.2-0.1,0.2C855.2,84.1,854.5,84.1,853.9,84.1C853.9,84.1,853.9,84.1,853.9,84.1z"/>
</g>
</svg>
